<svg width="119" height="23" viewBox="0 0 119 23" fill="none" xmlns="http://www.w3.org/2000/svg">
<path d="M3.07812 8.45312V22H0.171875V5.09375H2.92188L3.07812 8.45312ZM2.48438 12.9062L1.14062 12.8594C1.15104 11.7031 1.30208 10.6354 1.59375 9.65625C1.88542 8.66667 2.31771 7.80729 2.89062 7.07812C3.46354 6.34896 4.17708 5.78646 5.03125 5.39062C5.88542 4.98438 6.875 4.78125 8 4.78125C8.79167 4.78125 9.52083 4.89583 10.1875 5.125C10.8542 5.34375 11.4323 5.69271 11.9219 6.17188C12.4115 6.65104 12.7917 7.26562 13.0625 8.01562C13.3333 8.76562 13.4688 9.67188 13.4688 10.7344V22H10.5781V10.875C10.5781 9.98958 10.4271 9.28125 10.125 8.75C9.83333 8.21875 9.41667 7.83333 8.875 7.59375C8.33333 7.34375 7.69792 7.21875 6.96875 7.21875C6.11458 7.21875 5.40104 7.36979 4.82812 7.67188C4.25521 7.97396 3.79688 8.39062 3.45312 8.92188C3.10938 9.45312 2.85938 10.0625 2.70312 10.75C2.55729 11.4271 2.48438 12.1458 2.48438 12.9062ZM13.4375 11.3125L11.5 11.9062C11.5104 10.9792 11.6615 10.0885 11.9531 9.23438C12.2552 8.38021 12.6875 7.61979 13.25 6.95312C13.8229 6.28646 14.526 5.76042 15.3594 5.375C16.1927 4.97917 17.1458 4.78125 18.2188 4.78125C19.125 4.78125 19.9271 4.90104 20.625 5.14062C21.3333 5.38021 21.9271 5.75 22.4062 6.25C22.8958 6.73958 23.2656 7.36979 23.5156 8.14062C23.7656 8.91146 23.8906 9.82812 23.8906 10.8906V22H20.9844V10.8594C20.9844 9.91146 20.8333 9.17708 20.5312 8.65625C20.2396 8.125 19.8229 7.75521 19.2812 7.54688C18.75 7.32812 18.1146 7.21875 17.375 7.21875C16.7396 7.21875 16.1771 7.32812 15.6875 7.54688C15.1979 7.76562 14.7865 8.06771 14.4531 8.45312C14.1198 8.82812 13.8646 9.26042 13.6875 9.75C13.5208 10.2396 13.4375 10.7604 13.4375 11.3125ZM35.3438 5.09375V7.3125H26.2031V5.09375H35.3438ZM29.2969 0.984375H32.1875V17.8125C32.1875 18.3854 32.276 18.8177 32.4531 19.1094C32.6302 19.401 32.8594 19.5938 33.1406 19.6875C33.4219 19.7812 33.724 19.8281 34.0469 19.8281C34.2865 19.8281 34.5365 19.8073 34.7969 19.7656C35.0677 19.7135 35.2708 19.6719 35.4062 19.6406L35.4219 22C35.1927 22.0729 34.8906 22.1406 34.5156 22.2031C34.151 22.276 33.7083 22.3125 33.1875 22.3125C32.4792 22.3125 31.8281 22.1719 31.2344 21.8906C30.6406 21.6094 30.1667 21.1406 29.8125 20.4844C29.4688 19.8177 29.2969 18.9219 29.2969 17.7969V0.984375ZM38.7812 20.4688C38.7812 19.9792 38.9323 19.5677 39.2344 19.2344C39.5469 18.8906 39.9948 18.7188 40.5781 18.7188C41.1615 18.7188 41.6042 18.8906 41.9062 19.2344C42.2188 19.5677 42.375 19.9792 42.375 20.4688C42.375 20.9479 42.2188 21.3542 41.9062 21.6875C41.6042 22.0208 41.1615 22.1875 40.5781 22.1875C39.9948 22.1875 39.5469 22.0208 39.2344 21.6875C38.9323 21.3542 38.7812 20.9479 38.7812 20.4688ZM50.0625 8.70312V22H47.1719V5.09375H49.9062L50.0625 8.70312ZM49.375 12.9062L48.1719 12.8594C48.1823 11.7031 48.3542 10.6354 48.6875 9.65625C49.0208 8.66667 49.4896 7.80729 50.0938 7.07812C50.6979 6.34896 51.4167 5.78646 52.25 5.39062C53.0938 4.98438 54.026 4.78125 55.0469 4.78125C55.8802 4.78125 56.6302 4.89583 57.2969 5.125C57.9635 5.34375 58.5312 5.69792 59 6.1875C59.4792 6.67708 59.8438 7.3125 60.0938 8.09375C60.3438 8.86458 60.4688 9.80729 60.4688 10.9219V22H57.5625V10.8906C57.5625 10.0052 57.4323 9.29688 57.1719 8.76562C56.9115 8.22396 56.5312 7.83333 56.0312 7.59375C55.5312 7.34375 54.9167 7.21875 54.1875 7.21875C53.4688 7.21875 52.8125 7.36979 52.2188 7.67188C51.6354 7.97396 51.1302 8.39062 50.7031 8.92188C50.2865 9.45312 49.9583 10.0625 49.7188 10.75C49.4896 11.4271 49.375 12.1458 49.375 12.9062ZM71.875 22.3125C70.6979 22.3125 69.6302 22.1146 68.6719 21.7188C67.724 21.3125 66.9062 20.7448 66.2188 20.0156C65.5417 19.2865 65.0208 18.4219 64.6562 17.4219C64.2917 16.4219 64.1094 15.3281 64.1094 14.1406V13.4844C64.1094 12.1094 64.3125 10.8854 64.7188 9.8125C65.125 8.72917 65.6771 7.8125 66.375 7.0625C67.0729 6.3125 67.8646 5.74479 68.75 5.35938C69.6354 4.97396 70.5521 4.78125 71.5 4.78125C72.7083 4.78125 73.75 4.98958 74.625 5.40625C75.5104 5.82292 76.2344 6.40625 76.7969 7.15625C77.3594 7.89583 77.776 8.77083 78.0469 9.78125C78.3177 10.7812 78.4531 11.875 78.4531 13.0625V14.3594H65.8281V12H75.5625V11.7812C75.5208 11.0312 75.3646 10.3021 75.0938 9.59375C74.8333 8.88542 74.4167 8.30208 73.8438 7.84375C73.2708 7.38542 72.4896 7.15625 71.5 7.15625C70.8438 7.15625 70.2396 7.29688 69.6875 7.57812C69.1354 7.84896 68.6615 8.25521 68.2656 8.79688C67.8698 9.33854 67.5625 10 67.3438 10.7812C67.125 11.5625 67.0156 12.4635 67.0156 13.4844V14.1406C67.0156 14.9427 67.125 15.6979 67.3438 16.4062C67.5729 17.1042 67.901 17.7188 68.3281 18.25C68.7656 18.7812 69.2917 19.1979 69.9062 19.5C70.5312 19.8021 71.2396 19.9531 72.0312 19.9531C73.0521 19.9531 73.9167 19.7448 74.625 19.3281C75.3333 18.9115 75.9531 18.3542 76.4844 17.6562L78.2344 19.0469C77.8698 19.599 77.4062 20.125 76.8438 20.625C76.2812 21.125 75.5885 21.5312 74.7656 21.8438C73.9531 22.1562 72.9896 22.3125 71.875 22.3125ZM86.1094 19L90.4531 5.09375H92.3594L91.9844 7.85938L87.5625 22H85.7031L86.1094 19ZM83.1875 5.09375L86.8906 19.1562L87.1562 22H85.2031L80.2969 5.09375H83.1875ZM96.5156 19.0469L100.047 5.09375H102.922L98.0156 22H96.0781L96.5156 19.0469ZM92.7812 5.09375L97.0312 18.7656L97.5156 22H95.6719L91.125 7.82812L90.75 5.09375H92.7812ZM115.734 17.5156C115.734 17.099 115.641 16.7135 115.453 16.3594C115.276 15.9948 114.906 15.6667 114.344 15.375C113.792 15.0729 112.958 14.8125 111.844 14.5938C110.906 14.3958 110.057 14.1615 109.297 13.8906C108.547 13.6198 107.906 13.2917 107.375 12.9062C106.854 12.5208 106.453 12.0677 106.172 11.5469C105.891 11.026 105.75 10.4167 105.75 9.71875C105.75 9.05208 105.896 8.42188 106.188 7.82812C106.49 7.23438 106.911 6.70833 107.453 6.25C108.005 5.79167 108.667 5.43229 109.438 5.17188C110.208 4.91146 111.068 4.78125 112.016 4.78125C113.37 4.78125 114.526 5.02083 115.484 5.5C116.443 5.97917 117.177 6.61979 117.688 7.42188C118.198 8.21354 118.453 9.09375 118.453 10.0625H115.562C115.562 9.59375 115.422 9.14062 115.141 8.70312C114.87 8.25521 114.469 7.88542 113.938 7.59375C113.417 7.30208 112.776 7.15625 112.016 7.15625C111.214 7.15625 110.562 7.28125 110.062 7.53125C109.573 7.77083 109.214 8.07812 108.984 8.45312C108.766 8.82812 108.656 9.22396 108.656 9.64062C108.656 9.95312 108.708 10.2344 108.812 10.4844C108.927 10.724 109.125 10.9479 109.406 11.1562C109.688 11.3542 110.083 11.5417 110.594 11.7188C111.104 11.8958 111.755 12.0729 112.547 12.25C113.932 12.5625 115.073 12.9375 115.969 13.375C116.865 13.8125 117.531 14.349 117.969 14.9844C118.406 15.6198 118.625 16.3906 118.625 17.2969C118.625 18.0365 118.469 18.7135 118.156 19.3281C117.854 19.9427 117.411 20.474 116.828 20.9219C116.255 21.3594 115.568 21.7031 114.766 21.9531C113.974 22.1927 113.083 22.3125 112.094 22.3125C110.604 22.3125 109.344 22.0469 108.312 21.5156C107.281 20.9844 106.5 20.2969 105.969 19.4531C105.438 18.6094 105.172 17.7188 105.172 16.7812H108.078C108.12 17.5729 108.349 18.2031 108.766 18.6719C109.182 19.1302 109.693 19.4583 110.297 19.6562C110.901 19.8438 111.5 19.9375 112.094 19.9375C112.885 19.9375 113.547 19.8333 114.078 19.625C114.62 19.4167 115.031 19.1302 115.312 18.7656C115.594 18.401 115.734 17.9844 115.734 17.5156Z" fill="#E5E5E5"/>
</svg>
